<?xml version="1.0" standalone="no"?>
<!DOCTYPE svg PUBLIC "-//W3C//DTD SVG 20010904//EN"
 "http://www.w3.org/TR/2001/REC-SVG-20010904/DTD/svg10.dtd">
<svg version="1.0" xmlns="http://www.w3.org/2000/svg"
 width="512.000000pt" height="512.000000pt" viewBox="0 0 512.000000 512.000000"
 preserveAspectRatio="xMidYMid meet">

<g transform="translate(0.000000,512.000000) scale(0.100000,-0.100000)"
fill="#000000" stroke="none">
<path d="M2375 5114 c-337 -33 -603 -101 -873 -222 -129 -58 -336 -179 -438
-255 -68 -52 -69 -53 -69 -100 0 -46 -2 -49 -70 -111 -66 -60 -70 -62 -96 -49
-38 19 -65 6 -137 -69 -358 -371 -597 -878 -673 -1428 -20 -143 -18 -527 4
-670 90 -586 331 -1065 738 -1467 63 -62 155 -145 204 -185 642 -513 1493
-684 2290 -461 929 260 1646 1043 1819 1987 156 845 -103 1682 -705 2285 -398
398 -880 639 -1449 726 -100 15 -458 28 -545 19z m535 -475 c580 -99 1080
-424 1407 -914 166 -249 269 -511 324 -822 33 -185 33 -502 0 -687 -103 -587
-428 -1089 -912 -1411 -101 -68 -121 -91 -112 -136 4 -22 -4 -28 -84 -68 -53
-26 -89 -39 -91 -32 -2 6 -17 18 -33 27 -28 14 -36 12 -162 -30 -653 -221
-1379 -113 -1922 284 -605 442 -936 1171 -864 1906 98 1009 881 1797 1892
1904 134 14 415 4 557 -21z"/>
<path d="M2519 4510 c-8 -5 -134 -216 -280 -469 l-264 -460 -538 -1 -538 0
-24 -25 c-14 -13 -25 -35 -25 -47 0 -13 119 -231 265 -483 146 -253 265 -462
265 -465 0 -3 -119 -212 -265 -465 -146 -252 -265 -470 -265 -483 0 -12 11
-34 25 -47 24 -25 25 -25 233 -25 197 0 211 1 236 21 14 11 26 29 26 40 0 17
8 19 100 19 98 0 100 0 106 -25 12 -50 34 -55 224 -55 l175 -1 266 -462 c217
-379 270 -464 292 -471 62 -22 62 -22 346 471 l266 462 538 1 538 0 24 25 c14
13 25 35 25 47 0 13 -119 231 -265 483 -146 253 -265 462 -265 465 0 3 119
212 265 465 146 253 265 470 265 483 0 12 -11 34 -25 47 l-24 25 -538 0 -538
1 -265 460 c-145 254 -272 465 -282 470 -21 11 -58 11 -79 -1z m68 -268 c12
-20 103 -176 201 -347 l180 -310 -204 -3 c-112 -1 -295 -1 -407 0 l-203 3 200
347 c111 191 203 348 206 348 3 0 15 -17 27 -38z m-707 -816 c0 -2 -82 -145
-182 -317 -100 -173 -191 -331 -203 -352 -17 -29 -24 -35 -32 -25 -7 9 -322
553 -400 691 -2 4 181 7 406 7 226 0 411 -2 411 -4z m1978 -1379 l202 -352
-407 -3 c-223 -1 -408 -1 -410 2 -4 4 400 706 407 706 3 -1 96 -159 208 -353z"/>
<path d="M2519 3881 c-32 -32 -35 -47 -18 -85 16 -35 61 -52 98 -37 28 12 51
47 51 77 0 23 -55 74 -80 74 -12 0 -35 -13 -51 -29z"/>
<path d="M1422 3237 c-46 -49 -12 -127 54 -127 39 0 74 36 74 76 0 65 -84 98
-128 51z"/>
<path d="M3635 1985 c-32 -31 -33 -74 -2 -103 72 -67 172 34 102 103 -13 14
-36 25 -50 25 -14 0 -37 -11 -50 -25z"/>
<path d="M1626 4264 c-68 -21 -147 -101 -171 -173 -58 -177 74 -361 260 -361
249 0 368 308 183 474 -78 71 -169 91 -272 60z m161 -159 c27 -18 53 -71 53
-107 0 -56 -67 -118 -127 -118 -67 0 -130 72 -120 138 16 95 114 139 194 87z"/>
<path d="M3254 4236 c-131 -61 -192 -230 -130 -361 98 -207 393 -212 492 -8
32 64 37 151 15 217 -19 54 -86 124 -146 152 -69 33 -161 33 -231 0z m187
-149 c95 -64 51 -217 -62 -217 -76 0 -129 49 -129 120 0 99 108 153 191 97z"/>
<path d="M787 2836 c-88 -33 -155 -104 -178 -190 -15 -55 -6 -143 19 -193 31
-59 105 -120 170 -139 173 -51 352 85 352 267 0 92 -71 199 -160 244 -46 24
-154 29 -203 11z m151 -156 c67 -41 78 -135 23 -191 -98 -97 -259 20 -196 142
20 37 70 69 110 69 17 0 45 -9 63 -20z"/>
<path d="M4075 2796 c-106 -49 -175 -170 -161 -279 13 -97 67 -173 156 -218
56 -28 165 -31 223 -5 178 79 223 310 87 446 -80 81 -204 103 -305 56z m197
-164 c88 -87 2 -237 -115 -202 -76 22 -112 94 -83 164 33 79 137 99 198 38z"/>
<path d="M1620 1401 c-132 -43 -200 -138 -200 -276 0 -46 7 -74 26 -113 128
-258 515 -165 515 123 0 150 -107 263 -256 271 -33 2 -71 0 -85 -5z m114 -155
c97 -40 103 -177 10 -221 -41 -19 -68 -19 -110 1 -67 32 -86 126 -37 184 42
50 80 60 137 36z"/>
<path d="M3296 1389 c-133 -20 -237 -157 -223 -295 15 -141 130 -247 270 -246
155 0 277 119 277 272 0 171 -149 294 -324 269z m113 -164 c30 -15 61 -69 61
-104 0 -39 -28 -89 -59 -105 -99 -52 -213 32 -182 134 23 78 108 113 180 75z"/>
</g>
</svg>
